<?xml version="1.0" encoding="UTF-8"?>
<svg xmlns="http://www.w3.org/2000/svg" xmlns:xlink="http://www.w3.org/1999/xlink" viewBox="0 0 96 96" width="96px" height="96px">
<g id="surface33585911">
<rect x="0" y="0" width="96" height="96" style="fill:rgb(2.745098%,2.745098%,2.745098%);fill-opacity:1;stroke:none;"/>
<path style=" stroke:none;fill-rule:nonzero;fill:rgb(12.156863%,84.313726%,19.215687%);fill-opacity:0.7098;" d="M 58.070312 48 C 58.027344 47.34375 58 46.679688 58 46 C 58 33.839844 63.71875 26 72 26 C 78.820312 26 84.660156 31.324219 86 40 L 90 40 L 90 22 L 86 22 C 86 22 84.933594 25.011719 84 24.320312 C 80.203125 22.1875 76.554688 22.054688 71.953125 22.054688 C 60.351562 22.054688 50 32.519531 50 45.839844 C 50 46.566406 50.042969 47.285156 50.097656 48 L 45.898438 48 C 45.957031 47.285156 46 46.566406 46 45.839844 C 46 32.519531 35.648438 22.054688 24.046875 22.054688 C 19.445312 22.054688 15.796875 22.1875 12 24.320312 C 11.066406 25.011719 10 22 10 22 L 5.996094 22 L 6 40 L 10 40 C 11.339844 31.324219 17.179688 26 24 26 C 32.28125 26 38 33.839844 38 46 C 38 46.679688 37.972656 47.34375 37.929688 48 L 0 48 L 0 52 L 2.019531 52 C 4.183594 52 5.972656 53.722656 6.015625 55.886719 C 6.09375 59.578125 6.449219 64.011719 8 66 C 10.539062 69.25 14 72 24 72 C 34.042969 72 43.839844 62.945312 46 52 L 50 52 C 52.160156 62.945312 61.957031 72 72 72 C 82 72 85.460938 69.25 88 66 C 89.550781 64.011719 89.90625 59.578125 89.984375 55.886719 C 90.027344 53.722656 91.816406 52 93.980469 52 L 96 52 L 96 48 Z M 22.953125 67.460938 C 19.742188 67.460938 14.644531 67.449219 14 64 C 13.78125 62.832031 13.816406 58.945312 13.886719 55.90625 C 13.9375 53.734375 15.710938 52 17.886719 52 L 38 52 C 36.410156 61.5625 30.03125 67.460938 22.953125 67.460938 Z M 82 64 C 81.355469 67.449219 76.257812 67.460938 73.046875 67.460938 C 65.972656 67.460938 59.589844 61.5625 58 52 L 78.113281 52 C 80.289062 52 82.0625 53.734375 82.113281 55.90625 C 82.183594 58.945312 82.21875 62.832031 82 64 Z M 82 64 "/>
</g>
</svg>
